<?xml version="1.0" encoding="UTF-8" standalone="no"?>
<!DOCTYPE svg PUBLIC "-//W3C//DTD SVG 1.1//EN"
 "http://www.w3.org/Graphics/SVG/1.1/DTD/svg11.dtd">
<!-- Generated by graphviz version 14.1.2 (0)
 -->
<!-- Title: Clara Pages: 1 -->
<svg width="2687pt" height="1502pt"
 viewBox="0.00 0.00 2687.00 1502.00" xmlns="http://www.w3.org/2000/svg" xmlns:xlink="http://www.w3.org/1999/xlink">
<g id="graph0" class="graph" transform="scale(1 1) rotate(0) translate(4 1498)">
<title>Clara</title>
<polygon fill="white" stroke="none" points="-4,4 -4,-1498 2683.25,-1498 2683.25,4 -4,4"/>
<!-- rule_daemonic_turn_5_0 -->
<g id="node1" class="node">
<title>rule_daemonic_turn_5_0</title>
<polygon fill="#cce5ff" stroke="black" stroke-width="2" points="346,-764 0,-764 0,-728 346,-728 346,-764"/>
<text xml:space="preserve" text-anchor="middle" x="173" y="-742.3" font-family="Helvetica,sans-Serif" font-size="11.00">daemonic_turn(Visitor,Suggestions,Decision,Reason,Where)</text>
</g>
<!-- cond_0_0 -->
<g id="node15" class="node">
<title>cond_0_0</title>
<ellipse fill="#fff3cd" stroke="black" stroke-dasharray="5,2" cx="510.46" cy="-800" rx="59.07" ry="18"/>
<text xml:space="preserve" text-anchor="middle" x="510.46" y="-796.3" font-family="Helvetica,sans-Serif" font-size="11.00">visitor(Visitor)</text>
</g>
<!-- rule_daemonic_turn_5_0&#45;&gt;cond_0_0 -->
<g id="edge10" class="edge">
<title>rule_daemonic_turn_5_0&#45;&gt;cond_0_0</title>
<path fill="none" stroke="black" d="M291.8,-764.96C343.79,-773.33 402.82,-782.83 446.28,-789.83"/>
<polygon fill="black" stroke="black" points="445.61,-793.27 456.04,-791.4 446.73,-786.36 445.61,-793.27"/>
<text xml:space="preserve" text-anchor="middle" x="383.5" y="-785.23" font-family="Times,serif" font-size="9.00">requires</text>
</g>
<!-- cond_0_1c -->
<g id="node16" class="node">
<title>cond_0_1c</title>
<ellipse fill="#fff3cd" stroke="black" stroke-dasharray="5,2" cx="510.46" cy="-746" rx="81.51" ry="18"/>
<text xml:space="preserve" text-anchor="middle" x="510.46" y="-742.3" font-family="Helvetica,sans-Serif" font-size="11.00">suggestion(Visitor,S)</text>
</g>
<!-- rule_daemonic_turn_5_0&#45;&gt;cond_0_1c -->
<g id="edge11" class="edge">
<title>rule_daemonic_turn_5_0&#45;&gt;cond_0_1c</title>
<path fill="none" stroke="black" d="M346.64,-746C370.97,-746 395.17,-746 417.18,-746"/>
<polygon fill="black" stroke="black" points="416.96,-749.5 426.96,-746 416.96,-742.5 416.96,-749.5"/>
<text xml:space="preserve" text-anchor="middle" x="383.5" y="-748.7" font-family="Times,serif" font-size="9.00">collects</text>
</g>
<!-- cond_0_2 -->
<g id="node17" class="node">
<title>cond_0_2</title>
<ellipse fill="#fff3cd" stroke="black" stroke-dasharray="5,2" cx="510.46" cy="-647" rx="84.78" ry="18"/>
<text xml:space="preserve" text-anchor="middle" x="510.46" y="-643.3" font-family="Helvetica,sans-Serif" font-size="11.00">admit(Visitor,Reason)</text>
</g>
<!-- rule_daemonic_turn_5_0&#45;&gt;cond_0_2 -->
<g id="edge12" class="edge">
<title>rule_daemonic_turn_5_0&#45;&gt;cond_0_2</title>
<path fill="none" stroke="black" d="M238.28,-727.03C298.91,-709.14 389.11,-682.52 448.59,-664.96"/>
<polygon fill="black" stroke="black" points="449.27,-668.41 457.88,-662.22 447.29,-661.7 449.27,-668.41"/>
<text xml:space="preserve" text-anchor="middle" x="383.5" y="-690.33" font-family="Times,serif" font-size="9.00">requires</text>
</g>
<!-- rule_effective_decision_2_1 -->
<g id="node2" class="node">
<title>rule_effective_decision_2_1</title>
<polygon fill="#cce5ff" stroke="black" stroke-width="2" points="277.75,-872 68.25,-872 68.25,-836 277.75,-836 277.75,-872"/>
<text xml:space="preserve" text-anchor="middle" x="173" y="-850.3" font-family="Helvetica,sans-Serif" font-size="11.00">effective_decision(Decision,Where)</text>
</g>
<!-- cond_1_0 -->
<g id="node18" class="node">
<title>cond_1_0</title>
<ellipse fill="#fff3cd" stroke="black" stroke-dasharray="5,2" cx="510.46" cy="-854" rx="89.46" ry="18"/>
<text xml:space="preserve" text-anchor="middle" x="510.46" y="-850.3" font-family="Helvetica,sans-Serif" font-size="11.00">where_to_go(admitted)</text>
</g>
<!-- rule_effective_decision_2_1&#45;&gt;cond_1_0 -->
<g id="edge13" class="edge">
<title>rule_effective_decision_2_1&#45;&gt;cond_1_0</title>
<path fill="none" stroke="black" d="M278.3,-854C320.05,-854 367.96,-854 409.29,-854"/>
<polygon fill="black" stroke="black" points="409.25,-857.5 419.25,-854 409.25,-850.5 409.25,-857.5"/>
<text xml:space="preserve" text-anchor="middle" x="383.5" y="-856.7" font-family="Times,serif" font-size="9.00">requires</text>
</g>
<!-- rule_meets_condition_2_2 -->
<g id="node3" class="node">
<title>rule_meets_condition_2_2</title>
<polygon fill="#cce5ff" stroke="black" stroke-width="2" points="2486.12,-279 2282.62,-279 2282.62,-243 2486.12,-243 2486.12,-279"/>
<text xml:space="preserve" text-anchor="middle" x="2384.37" y="-257.3" font-family="Helvetica,sans-Serif" font-size="11.00">meets_condition(Visitor,Question)</text>
</g>
<!-- cond_2_0 -->
<g id="node19" class="node">
<title>cond_2_0</title>
<ellipse fill="#fff3cd" stroke="black" stroke-dasharray="5,2" cx="2620.18" cy="-288" rx="59.07" ry="18"/>
<text xml:space="preserve" text-anchor="middle" x="2620.18" y="-284.3" font-family="Helvetica,sans-Serif" font-size="11.00">visitor(Visitor)</text>
</g>
<!-- rule_meets_condition_2_2&#45;&gt;cond_2_0 -->
<g id="edge14" class="edge">
<title>rule_meets_condition_2_2&#45;&gt;cond_2_0</title>
<path fill="none" stroke="black" d="M2486.9,-272.72C2509.36,-275.32 2532.6,-278 2553.2,-280.38"/>
<polygon fill="black" stroke="black" points="2552.52,-283.83 2562.86,-281.5 2553.32,-276.87 2552.52,-283.83"/>
<text xml:space="preserve" text-anchor="middle" x="2523.62" y="-281.2" font-family="Times,serif" font-size="9.00">requires</text>
</g>
<!-- cond_2_1 -->
<g id="node20" class="node">
<title>cond_2_1</title>
<ellipse fill="#fff3cd" stroke="black" stroke-dasharray="5,2" cx="2620.18" cy="-234" rx="44.57" ry="18"/>
<text xml:space="preserve" text-anchor="middle" x="2620.18" y="-230.3" font-family="Helvetica,sans-Serif" font-size="11.00">the_rabbit</text>
</g>
<!-- rule_meets_condition_2_2&#45;&gt;cond_2_1 -->
<g id="edge15" class="edge">
<title>rule_meets_condition_2_2&#45;&gt;cond_2_1</title>
<path fill="none" stroke="black" d="M2486.9,-249.28C2514,-246.15 2542.22,-242.89 2565.59,-240.19"/>
<polygon fill="black" stroke="black" points="2565.97,-243.67 2575.5,-239.04 2565.16,-236.72 2565.97,-243.67"/>
<text xml:space="preserve" text-anchor="middle" x="2523.62" y="-249.39" font-family="Times,serif" font-size="9.00">requires</text>
</g>
<!-- rule_admit_2_3 -->
<g id="node4" class="node">
<title>rule_admit_2_3</title>
<polygon fill="#cce5ff" stroke="black" stroke-width="2" points="1190.29,-392 1054.29,-392 1054.29,-356 1190.29,-356 1190.29,-392"/>
<text xml:space="preserve" text-anchor="middle" x="1122.29" y="-370.3" font-family="Helvetica,sans-Serif" font-size="11.00">admit(Visitor,Reason)</text>
</g>
<!-- cond_3_0 -->
<g id="node21" class="node">
<title>cond_3_0</title>
<ellipse fill="#fff3cd" stroke="black" stroke-dasharray="5,2" cx="1847.26" cy="-450" rx="59.07" ry="18"/>
<text xml:space="preserve" text-anchor="middle" x="1847.26" y="-446.3" font-family="Helvetica,sans-Serif" font-size="11.00">visitor(Visitor)</text>
</g>
<!-- rule_admit_2_3&#45;&gt;cond_3_0 -->
<g id="edge16" class="edge">
<title>rule_admit_2_3&#45;&gt;cond_3_0</title>
<path fill="none" stroke="black" d="M1191.06,-384.24C1264.53,-395.07 1385.33,-412.06 1489.91,-423 1589.78,-433.45 1705.8,-441.48 1777.63,-445.97"/>
<polygon fill="black" stroke="black" points="1777.07,-449.44 1787.26,-446.57 1777.5,-442.45 1777.07,-449.44"/>
<text xml:space="preserve" text-anchor="middle" x="1452.41" y="-423.58" font-family="Times,serif" font-size="9.00">requires</text>
</g>
<!-- cond_3_1 -->
<g id="node22" class="node">
<title>cond_3_1</title>
<ellipse fill="#fff3cd" stroke="black" stroke-dasharray="5,2" cx="1847.26" cy="-396" rx="97.4" ry="18"/>
<text xml:space="preserve" text-anchor="middle" x="1847.26" y="-392.3" font-family="Helvetica,sans-Serif" font-size="11.00">carries_flamefruit(Visitor)</text>
</g>
<!-- rule_admit_2_3&#45;&gt;cond_3_1 -->
<g id="edge17" class="edge">
<title>rule_admit_2_3&#45;&gt;cond_3_1</title>
<path fill="none" stroke="black" d="M1190.98,-376.06C1317.09,-379.9 1588.85,-388.17 1739.78,-392.76"/>
<polygon fill="black" stroke="black" points="1739.26,-396.25 1749.36,-393.05 1739.47,-389.25 1739.26,-396.25"/>
<text xml:space="preserve" text-anchor="middle" x="1452.41" y="-387.04" font-family="Times,serif" font-size="9.00">requires</text>
</g>
<!-- cond_3_2 -->
<g id="node23" class="node">
<title>cond_3_2</title>
<ellipse fill="#fff3cd" stroke="black" stroke-dasharray="5,2" cx="1847.26" cy="-342" rx="246.55" ry="18"/>
<text xml:space="preserve" text-anchor="middle" x="1847.26" y="-338.3" font-family="Helvetica,sans-Serif" font-size="11.00">meets_condition(Visitor,&quot;Is the visitor carrying the rare Flamefruit?&quot;)</text>
</g>
<!-- rule_admit_2_3&#45;&gt;cond_3_2 -->
<g id="edge18" class="edge">
<title>rule_admit_2_3&#45;&gt;cond_3_2</title>
<path fill="none" stroke="black" d="M1190.98,-371C1288.92,-366.67 1474.72,-358.45 1623.53,-351.86"/>
<polygon fill="black" stroke="black" points="1623.29,-355.37 1633.12,-351.43 1622.98,-348.38 1623.29,-355.37"/>
<text xml:space="preserve" text-anchor="middle" x="1452.41" y="-362.62" font-family="Times,serif" font-size="9.00">requires</text>
</g>
<!-- rule_admit_2_4 -->
<g id="node5" class="node">
<title>rule_admit_2_4</title>
<polygon fill="#cce5ff" stroke="black" stroke-width="2" points="1190.29,-279 1054.29,-279 1054.29,-243 1190.29,-243 1190.29,-279"/>
<text xml:space="preserve" text-anchor="middle" x="1122.29" y="-257.3" font-family="Helvetica,sans-Serif" font-size="11.00">admit(Visitor,Reason)</text>
</g>
<!-- cond_4_0 -->
<g id="node24" class="node">
<title>cond_4_0</title>
<ellipse fill="#fff3cd" stroke="black" stroke-dasharray="5,2" cx="1847.26" cy="-288" rx="59.07" ry="18"/>
<text xml:space="preserve" text-anchor="middle" x="1847.26" y="-284.3" font-family="Helvetica,sans-Serif" font-size="11.00">visitor(Visitor)</text>
</g>
<!-- rule_admit_2_4&#45;&gt;cond_4_0 -->
<g id="edge19" class="edge">
<title>rule_admit_2_4&#45;&gt;cond_4_0</title>
<path fill="none" stroke="black" d="M1190.98,-263.53C1328.4,-268.66 1638.79,-280.25 1777.29,-285.42"/>
<polygon fill="black" stroke="black" points="1776.92,-288.91 1787.04,-285.79 1777.18,-281.92 1776.92,-288.91"/>
<text xml:space="preserve" text-anchor="middle" x="1452.41" y="-276.39" font-family="Times,serif" font-size="9.00">requires</text>
</g>
<!-- cond_4_1 -->
<g id="node25" class="node">
<title>cond_4_1</title>
<ellipse fill="#fff3cd" stroke="black" stroke-dasharray="5,2" cx="1847.26" cy="-234" rx="91.79" ry="18"/>
<text xml:space="preserve" text-anchor="middle" x="1847.26" y="-230.3" font-family="Helvetica,sans-Serif" font-size="11.00">has_critical_info(Visitor)</text>
</g>
<!-- rule_admit_2_4&#45;&gt;cond_4_1 -->
<g id="edge20" class="edge">
<title>rule_admit_2_4&#45;&gt;cond_4_1</title>
<path fill="none" stroke="black" d="M1190.98,-258.47C1318.59,-253.71 1595.33,-243.37 1745.11,-237.78"/>
<polygon fill="black" stroke="black" points="1745.17,-241.28 1755.04,-237.41 1744.91,-234.28 1745.17,-241.28"/>
<text xml:space="preserve" text-anchor="middle" x="1452.41" y="-251.82" font-family="Times,serif" font-size="9.00">requires</text>
</g>
<!-- cond_4_2 -->
<g id="node26" class="node">
<title>cond_4_2</title>
<ellipse fill="#fff3cd" stroke="black" stroke-dasharray="5,2" cx="1847.26" cy="-180" rx="328.83" ry="18"/>
<text xml:space="preserve" text-anchor="middle" x="1847.26" y="-176.3" font-family="Helvetica,sans-Serif" font-size="11.00">meets_condition(Visitor,&quot;Does the visitor claim to possess critical information for the City?&quot;)</text>
</g>
<!-- rule_admit_2_4&#45;&gt;cond_4_2 -->
<g id="edge21" class="edge">
<title>rule_admit_2_4&#45;&gt;cond_4_2</title>
<path fill="none" stroke="black" d="M1191.01,-249.56C1264.45,-237.5 1385.21,-218.66 1489.91,-207 1531.52,-202.37 1575.94,-198.3 1618.81,-194.82"/>
<polygon fill="black" stroke="black" points="1619.07,-198.31 1628.76,-194.03 1618.51,-191.34 1619.07,-198.31"/>
<text xml:space="preserve" text-anchor="middle" x="1452.41" y="-215.64" font-family="Times,serif" font-size="9.00">requires</text>
</g>
<!-- rule_admit_2_5 -->
<g id="node6" class="node">
<title>rule_admit_2_5</title>
<polygon fill="#cce5ff" stroke="black" stroke-width="2" points="1190.29,-117 1054.29,-117 1054.29,-81 1190.29,-81 1190.29,-117"/>
<text xml:space="preserve" text-anchor="middle" x="1122.29" y="-95.3" font-family="Helvetica,sans-Serif" font-size="11.00">admit(Visitor,Reason)</text>
</g>
<!-- cond_5_0 -->
<g id="node27" class="node">
<title>cond_5_0</title>
<ellipse fill="#fff3cd" stroke="black" stroke-dasharray="5,2" cx="1847.26" cy="-126" rx="59.07" ry="18"/>
<text xml:space="preserve" text-anchor="middle" x="1847.26" y="-122.3" font-family="Helvetica,sans-Serif" font-size="11.00">visitor(Visitor)</text>
</g>
<!-- rule_admit_2_5&#45;&gt;cond_5_0 -->
<g id="edge22" class="edge">
<title>rule_admit_2_5&#45;&gt;cond_5_0</title>
<path fill="none" stroke="black" d="M1190.98,-101.53C1328.4,-106.66 1638.79,-118.25 1777.29,-123.42"/>
<polygon fill="black" stroke="black" points="1776.92,-126.91 1787.04,-123.79 1777.18,-119.92 1776.92,-126.91"/>
<text xml:space="preserve" text-anchor="middle" x="1452.41" y="-114.39" font-family="Times,serif" font-size="9.00">requires</text>
</g>
<!-- cond_5_1 -->
<g id="node28" class="node">
<title>cond_5_1</title>
<ellipse fill="#fff3cd" stroke="black" stroke-dasharray="5,2" cx="1847.26" cy="-72" rx="94.6" ry="18"/>
<text xml:space="preserve" text-anchor="middle" x="1847.26" y="-68.3" font-family="Helvetica,sans-Serif" font-size="11.00">lost_or_confused(Visitor)</text>
</g>
<!-- rule_admit_2_5&#45;&gt;cond_5_1 -->
<g id="edge23" class="edge">
<title>rule_admit_2_5&#45;&gt;cond_5_1</title>
<path fill="none" stroke="black" d="M1190.98,-96.47C1317.82,-91.74 1592,-81.5 1742.38,-75.88"/>
<polygon fill="black" stroke="black" points="1742.5,-79.38 1752.37,-75.51 1742.24,-72.38 1742.5,-79.38"/>
<text xml:space="preserve" text-anchor="middle" x="1452.41" y="-89.82" font-family="Times,serif" font-size="9.00">requires</text>
</g>
<!-- cond_5_2 -->
<g id="node29" class="node">
<title>cond_5_2</title>
<ellipse fill="#fff3cd" stroke="black" stroke-dasharray="5,2" cx="1847.26" cy="-18" rx="321.35" ry="18"/>
<text xml:space="preserve" text-anchor="middle" x="1847.26" y="-14.3" font-family="Helvetica,sans-Serif" font-size="11.00">meets_condition(Visitor,&quot;Does the visitor appear lost or confused about where they are?&quot;)</text>
</g>
<!-- rule_admit_2_5&#45;&gt;cond_5_2 -->
<g id="edge24" class="edge">
<title>rule_admit_2_5&#45;&gt;cond_5_2</title>
<path fill="none" stroke="black" d="M1191.01,-87.56C1264.45,-75.5 1385.21,-56.66 1489.91,-45 1532.17,-40.29 1577.34,-36.17 1620.84,-32.66"/>
<polygon fill="black" stroke="black" points="1620.96,-36.16 1630.65,-31.88 1620.4,-29.18 1620.96,-36.16"/>
<text xml:space="preserve" text-anchor="middle" x="1452.41" y="-53.64" font-family="Times,serif" font-size="9.00">requires</text>
</g>
<!-- rule_suggestion_2_6 -->
<g id="node7" class="node">
<title>rule_suggestion_2_6</title>
<polygon fill="#cce5ff" stroke="black" stroke-width="2" points="1234.16,-1440 1010.41,-1440 1010.41,-1404 1234.16,-1404 1234.16,-1440"/>
<text xml:space="preserve" text-anchor="middle" x="1122.29" y="-1418.3" font-family="Helvetica,sans-Serif" font-size="11.00">suggestion(Visitor,&#39;Greet the visitor.&#39;)</text>
</g>
<!-- cond_6_0 -->
<g id="node30" class="node">
<title>cond_6_0</title>
<ellipse fill="#fff3cd" stroke="black" stroke-dasharray="5,2" cx="1847.26" cy="-1476" rx="59.07" ry="18"/>
<text xml:space="preserve" text-anchor="middle" x="1847.26" y="-1472.3" font-family="Helvetica,sans-Serif" font-size="11.00">visitor(Visitor)</text>
</g>
<!-- rule_suggestion_2_6&#45;&gt;cond_6_0 -->
<g id="edge25" class="edge">
<title>rule_suggestion_2_6&#45;&gt;cond_6_0</title>
<path fill="none" stroke="black" d="M1235.06,-1430.35C1386.89,-1441.69 1653.63,-1461.61 1778.37,-1470.93"/>
<polygon fill="black" stroke="black" points="1777.89,-1474.4 1788.12,-1471.66 1778.41,-1467.42 1777.89,-1474.4"/>
<text xml:space="preserve" text-anchor="middle" x="1452.41" y="-1450.08" font-family="Times,serif" font-size="9.00">requires</text>
</g>
<!-- cond_6_1 -->
<g id="node31" class="node">
<title>cond_6_1</title>
<ellipse fill="#fff3cd" stroke="black" stroke-dasharray="5,2" cx="1847.26" cy="-1422" rx="76.83" ry="18"/>
<text xml:space="preserve" text-anchor="middle" x="1847.26" y="-1418.3" font-family="Helvetica,sans-Serif" font-size="11.00">\\+ greeted(Visitor)</text>
</g>
<!-- rule_suggestion_2_6&#45;&gt;cond_6_1 -->
<g id="edge26" class="edge">
<title>rule_suggestion_2_6&#45;&gt;cond_6_1</title>
<path fill="none" stroke="black" d="M1235.06,-1422C1379.39,-1422 1627.58,-1422 1758.89,-1422"/>
<polygon fill="black" stroke="black" points="1758.56,-1425.5 1768.56,-1422 1758.56,-1418.5 1758.56,-1425.5"/>
<text xml:space="preserve" text-anchor="middle" x="1452.41" y="-1424.7" font-family="Times,serif" font-size="9.00">requires</text>
</g>
<!-- rule_suggestion_2_7 -->
<g id="node8" class="node">
<title>rule_suggestion_2_7</title>
<polygon fill="#cce5ff" stroke="black" stroke-width="2" points="1306.54,-1310 938.04,-1310 938.04,-1274 1306.54,-1274 1306.54,-1310"/>
<text xml:space="preserve" text-anchor="middle" x="1122.29" y="-1288.3" font-family="Helvetica,sans-Serif" font-size="11.00">suggestion(Visitor,&#39;Direct the visitor to the nearest map kiosk.&#39;)</text>
</g>
<!-- cond_7_0 -->
<g id="node32" class="node">
<title>cond_7_0</title>
<ellipse fill="#fff3cd" stroke="black" stroke-dasharray="5,2" cx="1847.26" cy="-1368" rx="59.07" ry="18"/>
<text xml:space="preserve" text-anchor="middle" x="1847.26" y="-1364.3" font-family="Helvetica,sans-Serif" font-size="11.00">visitor(Visitor)</text>
</g>
<!-- rule_suggestion_2_7&#45;&gt;cond_7_0 -->
<g id="edge27" class="edge">
<title>rule_suggestion_2_7&#45;&gt;cond_7_0</title>
<path fill="none" stroke="black" d="M1251.6,-1310.98C1321.87,-1320.91 1410.56,-1332.7 1489.91,-1341 1589.78,-1351.45 1705.8,-1359.48 1777.63,-1363.97"/>
<polygon fill="black" stroke="black" points="1777.07,-1367.44 1787.26,-1364.57 1777.5,-1360.45 1777.07,-1367.44"/>
<text xml:space="preserve" text-anchor="middle" x="1452.41" y="-1341.58" font-family="Times,serif" font-size="9.00">requires</text>
</g>
<!-- cond_7_1 -->
<g id="node33" class="node">
<title>cond_7_1</title>
<ellipse fill="#fff3cd" stroke="black" stroke-dasharray="5,2" cx="1847.26" cy="-1314" rx="94.6" ry="18"/>
<text xml:space="preserve" text-anchor="middle" x="1847.26" y="-1310.3" font-family="Helvetica,sans-Serif" font-size="11.00">lost_or_confused(Visitor)</text>
</g>
<!-- rule_suggestion_2_7&#45;&gt;cond_7_1 -->
<g id="edge28" class="edge">
<title>rule_suggestion_2_7&#45;&gt;cond_7_1</title>
<path fill="none" stroke="black" d="M1307.13,-1297.59C1445.05,-1301.79 1628.89,-1307.39 1742.32,-1310.84"/>
<polygon fill="black" stroke="black" points="1742.14,-1314.33 1752.25,-1311.14 1742.36,-1307.34 1742.14,-1314.33"/>
<text xml:space="preserve" text-anchor="middle" x="1452.41" y="-1305.04" font-family="Times,serif" font-size="9.00">requires</text>
</g>
<!-- cond_7_2 -->
<g id="node34" class="node">
<title>cond_7_2</title>
<ellipse fill="#fff3cd" stroke="black" stroke-dasharray="5,2" cx="1847.26" cy="-1260" rx="357.35" ry="18"/>
<text xml:space="preserve" text-anchor="middle" x="1847.26" y="-1256.3" font-family="Helvetica,sans-Serif" font-size="11.00">meets_condition(Visitor,&quot;Based on the conversation so far, does the visitor seem lost or confused?&quot;)</text>
</g>
<!-- rule_suggestion_2_7&#45;&gt;cond_7_2 -->
<g id="edge29" class="edge">
<title>rule_suggestion_2_7&#45;&gt;cond_7_2</title>
<path fill="none" stroke="black" d="M1307.13,-1283.86C1385.08,-1280.41 1477.7,-1276.31 1563.99,-1272.49"/>
<polygon fill="black" stroke="black" points="1563.95,-1276 1573.78,-1272.06 1563.64,-1269.01 1563.95,-1276"/>
<text xml:space="preserve" text-anchor="middle" x="1452.41" y="-1280.62" font-family="Times,serif" font-size="9.00">requires</text>
</g>
<!-- rule_suggestion_2_8 -->
<g id="node9" class="node">
<title>rule_suggestion_2_8</title>
<polygon fill="#cce5ff" stroke="black" stroke-width="2" points="1352.29,-1089 892.29,-1089 892.29,-1053 1352.29,-1053 1352.29,-1089"/>
<text xml:space="preserve" text-anchor="middle" x="1122.29" y="-1067.3" font-family="Helvetica,sans-Serif" font-size="11.00">suggestion(Visitor,&#39;Request the three required artifacts for summoned visitors.&#39;)</text>
</g>
<!-- cond_8_0 -->
<g id="node35" class="node">
<title>cond_8_0</title>
<ellipse fill="#fff3cd" stroke="black" stroke-dasharray="5,2" cx="1847.26" cy="-1206" rx="59.07" ry="18"/>
<text xml:space="preserve" text-anchor="middle" x="1847.26" y="-1202.3" font-family="Helvetica,sans-Serif" font-size="11.00">visitor(Visitor)</text>
</g>
<!-- rule_suggestion_2_8&#45;&gt;cond_8_0 -->
<g id="edge30" class="edge">
<title>rule_suggestion_2_8&#45;&gt;cond_8_0</title>
<path fill="none" stroke="black" d="M1174.96,-1089.99C1245.2,-1114.93 1375.2,-1158 1489.91,-1179 1588.39,-1197.03 1704.31,-1203.06 1776.55,-1205.05"/>
<polygon fill="black" stroke="black" points="1776.16,-1208.54 1786.25,-1205.3 1776.34,-1201.54 1776.16,-1208.54"/>
<text xml:space="preserve" text-anchor="middle" x="1452.41" y="-1177.81" font-family="Times,serif" font-size="9.00">requires</text>
</g>
<!-- cond_8_1 -->
<g id="node36" class="node">
<title>cond_8_1</title>
<ellipse fill="#fff3cd" stroke="black" stroke-dasharray="5,2" cx="1847.26" cy="-1152" rx="92.73" ry="18"/>
<text xml:space="preserve" text-anchor="middle" x="1847.26" y="-1148.3" font-family="Helvetica,sans-Serif" font-size="11.00">summoned_by(Visitor,_)</text>
</g>
<!-- rule_suggestion_2_8&#45;&gt;cond_8_1 -->
<g id="edge31" class="edge">
<title>rule_suggestion_2_8&#45;&gt;cond_8_1</title>
<path fill="none" stroke="black" d="M1237.78,-1089.99C1309.95,-1101.43 1405.19,-1115.56 1489.91,-1125 1576.24,-1134.62 1674.74,-1141.79 1746.26,-1146.32"/>
<polygon fill="black" stroke="black" points="1745.79,-1149.79 1755.99,-1146.93 1746.23,-1142.81 1745.79,-1149.79"/>
<text xml:space="preserve" text-anchor="middle" x="1452.41" y="-1125.43" font-family="Times,serif" font-size="9.00">requires</text>
</g>
<!-- cond_8_2c -->
<g id="node37" class="node">
<title>cond_8_2c</title>
<ellipse fill="#fff3cd" stroke="black" stroke-dasharray="5,2" cx="1847.26" cy="-1098" rx="84.78" ry="18"/>
<text xml:space="preserve" text-anchor="middle" x="1847.26" y="-1094.3" font-family="Helvetica,sans-Serif" font-size="11.00">has_artifact(Visitor,A)</text>
</g>
<!-- rule_suggestion_2_8&#45;&gt;cond_8_2c -->
<g id="edge32" class="edge">
<title>rule_suggestion_2_8&#45;&gt;cond_8_2c</title>
<path fill="none" stroke="black" d="M1353.03,-1079.58C1488,-1084.62 1651.35,-1090.72 1752.04,-1094.48"/>
<polygon fill="black" stroke="black" points="1751.76,-1097.97 1761.88,-1094.85 1752.02,-1090.98 1751.76,-1097.97"/>
<text xml:space="preserve" text-anchor="middle" x="1452.41" y="-1086.39" font-family="Times,serif" font-size="9.00">collects</text>
</g>
<!-- cond_8_3 -->
<g id="node38" class="node">
<title>cond_8_3</title>
<ellipse fill="#fff3cd" stroke="black" stroke-dasharray="5,2" cx="1847.26" cy="-1044" rx="73.56" ry="18"/>
<text xml:space="preserve" text-anchor="middle" x="1847.26" y="-1040.3" font-family="Helvetica,sans-Serif" font-size="11.00">length(Artifacts,N)</text>
</g>
<!-- rule_suggestion_2_8&#45;&gt;cond_8_3 -->
<g id="edge33" class="edge">
<title>rule_suggestion_2_8&#45;&gt;cond_8_3</title>
<path fill="none" stroke="black" d="M1353.03,-1062.42C1492.84,-1057.2 1663.09,-1050.84 1762.61,-1047.12"/>
<polygon fill="black" stroke="black" points="1762.72,-1050.62 1772.58,-1046.75 1762.46,-1043.63 1762.72,-1050.62"/>
<text xml:space="preserve" text-anchor="middle" x="1452.41" y="-1061.82" font-family="Times,serif" font-size="9.00">requires</text>
</g>
<!-- cond_8_4 -->
<g id="node39" class="node">
<title>cond_8_4</title>
<ellipse fill="#fff3cd" stroke="black" stroke-dasharray="5,2" cx="1847.26" cy="-990" rx="27" ry="18"/>
<text xml:space="preserve" text-anchor="middle" x="1847.26" y="-986.3" font-family="Helvetica,sans-Serif" font-size="11.00">N</text>
</g>
<!-- rule_suggestion_2_8&#45;&gt;cond_8_4 -->
<g id="edge34" class="edge">
<title>rule_suggestion_2_8&#45;&gt;cond_8_4</title>
<path fill="none" stroke="black" d="M1237.78,-1052.01C1309.95,-1040.57 1405.19,-1026.44 1489.91,-1017 1606.01,-1004.07 1744.09,-995.55 1809.02,-991.95"/>
<polygon fill="black" stroke="black" points="1808.97,-995.46 1818.76,-991.42 1808.59,-988.47 1808.97,-995.46"/>
<text xml:space="preserve" text-anchor="middle" x="1452.41" y="-1025.64" font-family="Times,serif" font-size="9.00">requires</text>
</g>
<!-- rule_suggestion_2_9 -->
<g id="node10" class="node">
<title>rule_suggestion_2_9</title>
<polygon fill="#cce5ff" stroke="black" stroke-width="2" points="1414.91,-900 829.66,-900 829.66,-864 1414.91,-864 1414.91,-900"/>
<text xml:space="preserve" text-anchor="middle" x="1122.29" y="-878.3" font-family="Helvetica,sans-Serif" font-size="11.00">suggestion(Visitor,&#39;Verify that the visitor made no prior stops before delivering their urgent message.&#39;)</text>
</g>
<!-- cond_9_0 -->
<g id="node40" class="node">
<title>cond_9_0</title>
<ellipse fill="#fff3cd" stroke="black" stroke-dasharray="5,2" cx="1847.26" cy="-936" rx="59.07" ry="18"/>
<text xml:space="preserve" text-anchor="middle" x="1847.26" y="-932.3" font-family="Helvetica,sans-Serif" font-size="11.00">visitor(Visitor)</text>
</g>
<!-- rule_suggestion_2_9&#45;&gt;cond_9_0 -->
<g id="edge35" class="edge">
<title>rule_suggestion_2_9&#45;&gt;cond_9_0</title>
<path fill="none" stroke="black" d="M1377.42,-900.98C1520,-911.63 1687.09,-924.11 1778.31,-930.92"/>
<polygon fill="black" stroke="black" points="1777.85,-934.4 1788.08,-931.65 1778.37,-927.42 1777.85,-934.4"/>
<text xml:space="preserve" text-anchor="middle" x="1452.41" y="-910.08" font-family="Times,serif" font-size="9.00">requires</text>
</g>
<!-- cond_9_1 -->
<g id="node41" class="node">
<title>cond_9_1</title>
<ellipse fill="#fff3cd" stroke="black" stroke-dasharray="5,2" cx="1847.26" cy="-882" rx="94.13" ry="18"/>
<text xml:space="preserve" text-anchor="middle" x="1847.26" y="-878.3" font-family="Helvetica,sans-Serif" font-size="11.00">urgent_message(Visitor)</text>
</g>
<!-- rule_suggestion_2_9&#45;&gt;cond_9_1 -->
<g id="edge36" class="edge">
<title>rule_suggestion_2_9&#45;&gt;cond_9_1</title>
<path fill="none" stroke="black" d="M1415.79,-882C1531.05,-882 1656.03,-882 1741.47,-882"/>
<polygon fill="black" stroke="black" points="1741.23,-885.5 1751.23,-882 1741.23,-878.5 1741.23,-885.5"/>
<text xml:space="preserve" text-anchor="middle" x="1452.41" y="-884.7" font-family="Times,serif" font-size="9.00">requires</text>
</g>
<!-- cond_9_2 -->
<g id="node42" class="node">
<title>cond_9_2</title>
<ellipse fill="#fff3cd" stroke="black" stroke-dasharray="5,2" cx="1847.26" cy="-828" rx="116.1" ry="18"/>
<text xml:space="preserve" text-anchor="middle" x="1847.26" y="-824.3" font-family="Helvetica,sans-Serif" font-size="11.00">\\+ stopped_elsewhere(Visitor)</text>
</g>
<!-- rule_suggestion_2_9&#45;&gt;cond_9_2 -->
<g id="edge37" class="edge">
<title>rule_suggestion_2_9&#45;&gt;cond_9_2</title>
<path fill="none" stroke="black" d="M1377.42,-863.02C1497.82,-854.03 1635.69,-843.73 1730.6,-836.64"/>
<polygon fill="black" stroke="black" points="1730.74,-840.14 1740.45,-835.9 1730.21,-833.16 1730.74,-840.14"/>
<text xml:space="preserve" text-anchor="middle" x="1452.41" y="-860.93" font-family="Times,serif" font-size="9.00">requires</text>
</g>
<!-- rule_suggestion_2_10 -->
<g id="node11" class="node">
<title>rule_suggestion_2_10</title>
<polygon fill="#cce5ff" stroke="black" stroke-width="2" points="1326.04,-765 918.54,-765 918.54,-729 1326.04,-729 1326.04,-765"/>
<text xml:space="preserve" text-anchor="middle" x="1122.29" y="-743.3" font-family="Helvetica,sans-Serif" font-size="11.00">suggestion(Visitor,&#39;Ask the visitor to perform a simple reliability task.&#39;)</text>
</g>
<!-- cond_10_0 -->
<g id="node43" class="node">
<title>cond_10_0</title>
<ellipse fill="#fff3cd" stroke="black" stroke-dasharray="5,2" cx="1847.26" cy="-774" rx="59.07" ry="18"/>
<text xml:space="preserve" text-anchor="middle" x="1847.26" y="-770.3" font-family="Helvetica,sans-Serif" font-size="11.00">visitor(Visitor)</text>
</g>
<!-- rule_suggestion_2_10&#45;&gt;cond_10_0 -->
<g id="edge38" class="edge">
<title>rule_suggestion_2_10&#45;&gt;cond_10_0</title>
<path fill="none" stroke="black" d="M1326.6,-754.59C1477.41,-760.22 1673.97,-767.57 1776.74,-771.4"/>
<polygon fill="black" stroke="black" points="1776.56,-774.9 1786.68,-771.77 1776.82,-767.9 1776.56,-774.9"/>
<text xml:space="preserve" text-anchor="middle" x="1452.41" y="-762.39" font-family="Times,serif" font-size="9.00">requires</text>
</g>
<!-- cond_10_1 -->
<g id="node44" class="node">
<title>cond_10_1</title>
<ellipse fill="#fff3cd" stroke="black" stroke-dasharray="5,2" cx="1847.26" cy="-720" rx="91.79" ry="18"/>
<text xml:space="preserve" text-anchor="middle" x="1847.26" y="-716.3" font-family="Helvetica,sans-Serif" font-size="11.00">has_critical_info(Visitor)</text>
</g>
<!-- rule_suggestion_2_10&#45;&gt;cond_10_1 -->
<g id="edge39" class="edge">
<title>rule_suggestion_2_10&#45;&gt;cond_10_1</title>
<path fill="none" stroke="black" d="M1326.6,-739.41C1463.35,-734.3 1637.71,-727.79 1745.66,-723.76"/>
<polygon fill="black" stroke="black" points="1745.49,-727.27 1755.35,-723.4 1745.23,-720.27 1745.49,-727.27"/>
<text xml:space="preserve" text-anchor="middle" x="1452.41" y="-737.82" font-family="Times,serif" font-size="9.00">requires</text>
</g>
<!-- cond_10_2 -->
<g id="node45" class="node">
<title>cond_10_2</title>
<ellipse fill="#fff3cd" stroke="black" stroke-dasharray="5,2" cx="1847.26" cy="-666" rx="103.48" ry="18"/>
<text xml:space="preserve" text-anchor="middle" x="1847.26" y="-662.3" font-family="Helvetica,sans-Serif" font-size="11.00">\\+ performed_task(Visitor)</text>
</g>
<!-- rule_suggestion_2_10&#45;&gt;cond_10_2 -->
<g id="edge40" class="edge">
<title>rule_suggestion_2_10&#45;&gt;cond_10_2</title>
<path fill="none" stroke="black" d="M1237.78,-728.01C1309.95,-716.57 1405.19,-702.44 1489.91,-693 1572.59,-683.79 1666.41,-676.82 1737.03,-672.27"/>
<polygon fill="black" stroke="black" points="1736.89,-675.79 1746.64,-671.66 1736.44,-668.8 1736.89,-675.79"/>
<text xml:space="preserve" text-anchor="middle" x="1452.41" y="-701.64" font-family="Times,serif" font-size="9.00">requires</text>
</g>
<!-- rule_suggestion_2_11 -->
<g id="node12" class="node">
<title>rule_suggestion_2_11</title>
<polygon fill="#cce5ff" stroke="black" stroke-width="2" points="1324.16,-603 920.41,-603 920.41,-567 1324.16,-567 1324.16,-603"/>
<text xml:space="preserve" text-anchor="middle" x="1122.29" y="-581.3" font-family="Helvetica,sans-Serif" font-size="11.00">suggestion(Visitor,&#39;Advise the visitor to wait until dawn before entry.&#39;)</text>
</g>
<!-- cond_11_0 -->
<g id="node46" class="node">
<title>cond_11_0</title>
<ellipse fill="#fff3cd" stroke="black" stroke-dasharray="5,2" cx="1847.26" cy="-612" rx="59.07" ry="18"/>
<text xml:space="preserve" text-anchor="middle" x="1847.26" y="-608.3" font-family="Helvetica,sans-Serif" font-size="11.00">visitor(Visitor)</text>
</g>
<!-- rule_suggestion_2_11&#45;&gt;cond_11_0 -->
<g id="edge41" class="edge">
<title>rule_suggestion_2_11&#45;&gt;cond_11_0</title>
<path fill="none" stroke="black" d="M1325.16,-592.54C1476.21,-598.18 1673.79,-605.56 1776.86,-609.41"/>
<polygon fill="black" stroke="black" points="1776.71,-612.9 1786.84,-609.78 1776.97,-605.91 1776.71,-612.9"/>
<text xml:space="preserve" text-anchor="middle" x="1452.41" y="-600.39" font-family="Times,serif" font-size="9.00">requires</text>
</g>
<!-- cond_11_1 -->
<g id="node47" class="node">
<title>cond_11_1</title>
<ellipse fill="#fff3cd" stroke="black" stroke-dasharray="5,2" cx="1847.26" cy="-558" rx="97.4" ry="18"/>
<text xml:space="preserve" text-anchor="middle" x="1847.26" y="-554.3" font-family="Helvetica,sans-Serif" font-size="11.00">carries_flamefruit(Visitor)</text>
</g>
<!-- rule_suggestion_2_11&#45;&gt;cond_11_1 -->
<g id="edge42" class="edge">
<title>rule_suggestion_2_11&#45;&gt;cond_11_1</title>
<path fill="none" stroke="black" d="M1325.16,-577.46C1459.72,-572.44 1631.22,-566.03 1739.92,-561.97"/>
<polygon fill="black" stroke="black" points="1739.84,-565.48 1749.71,-561.61 1739.58,-558.48 1739.84,-565.48"/>
<text xml:space="preserve" text-anchor="middle" x="1452.41" y="-575.82" font-family="Times,serif" font-size="9.00">requires</text>
</g>
<!-- cond_11_2 -->
<g id="node48" class="node">
<title>cond_11_2</title>
<ellipse fill="#fff3cd" stroke="black" stroke-dasharray="5,2" cx="1847.26" cy="-504" rx="60" ry="18"/>
<text xml:space="preserve" text-anchor="middle" x="1847.26" y="-500.3" font-family="Helvetica,sans-Serif" font-size="11.00">after_sundown</text>
</g>
<!-- rule_suggestion_2_11&#45;&gt;cond_11_2 -->
<g id="edge43" class="edge">
<title>rule_suggestion_2_11&#45;&gt;cond_11_2</title>
<path fill="none" stroke="black" d="M1237.78,-566.01C1309.95,-554.57 1405.19,-540.44 1489.91,-531 1589.27,-519.93 1704.73,-512.1 1776.65,-507.82"/>
<polygon fill="black" stroke="black" points="1776.53,-511.33 1786.3,-507.25 1776.12,-504.34 1776.53,-511.33"/>
<text xml:space="preserve" text-anchor="middle" x="1452.41" y="-539.64" font-family="Times,serif" font-size="9.00">requires</text>
</g>
<!-- synth_admit_2 -->
<g id="node13" class="node">
<title>synth_admit_2</title>
<polygon fill="#7ba7d4" stroke="black" stroke-width="3" points="750.16,-316 692.16,-316 692.16,-280 750.16,-280 750.16,-316"/>
<text xml:space="preserve" text-anchor="middle" x="721.16" y="-294.3" font-family="Helvetica,sans-Serif" font-size="11.00">admit/2</text>
</g>
<!-- synth_admit_2&#45;&gt;rule_admit_2_3 -->
<g id="edge1" class="edge">
<title>synth_admit_2&#45;&gt;rule_admit_2_3</title>
<path fill="none" stroke="#555555" stroke-dasharray="1,5" d="M751.51,-303.59C812.11,-315.13 952.85,-341.93 1042.17,-358.93"/>
<polygon fill="#555555" stroke="#555555" points="1041.37,-362.35 1051.85,-360.78 1042.68,-355.47 1041.37,-362.35"/>
<text xml:space="preserve" text-anchor="middle" x="797.04" y="-317.12" font-family="Times,serif" font-size="9.00">clause</text>
</g>
<!-- synth_admit_2&#45;&gt;rule_admit_2_4 -->
<g id="edge2" class="edge">
<title>synth_admit_2&#45;&gt;rule_admit_2_4</title>
<path fill="none" stroke="#555555" stroke-dasharray="1,5" d="M751.51,-295.28C812.04,-289.67 952.56,-276.64 1041.89,-268.36"/>
<polygon fill="#555555" stroke="#555555" points="1042.19,-271.85 1051.83,-267.44 1041.55,-264.88 1042.19,-271.85"/>
<text xml:space="preserve" text-anchor="middle" x="797.04" y="-294.5" font-family="Times,serif" font-size="9.00">clause</text>
</g>
<!-- synth_admit_2&#45;&gt;rule_admit_2_5 -->
<g id="edge3" class="edge">
<title>synth_admit_2&#45;&gt;rule_admit_2_5</title>
<path fill="none" stroke="#555555" stroke-dasharray="1,5" d="M751.35,-279.51C772.71,-266.25 802.57,-248.29 829.66,-234 910.43,-191.41 1007.13,-148.09 1066.37,-122.39"/>
<polygon fill="#555555" stroke="#555555" points="1067.45,-125.74 1075.23,-118.56 1064.67,-119.32 1067.45,-125.74"/>
<text xml:space="preserve" text-anchor="middle" x="797.04" y="-261.96" font-family="Times,serif" font-size="9.00">clause</text>
</g>
<!-- synth_suggestion_2 -->
<g id="node14" class="node">
<title>synth_suggestion_2</title>
<polygon fill="#7ba7d4" stroke="black" stroke-width="3" points="764.41,-900 677.91,-900 677.91,-864 764.41,-864 764.41,-900"/>
<text xml:space="preserve" text-anchor="middle" x="721.16" y="-878.3" font-family="Helvetica,sans-Serif" font-size="11.00">suggestion/2</text>
</g>
<!-- synth_suggestion_2&#45;&gt;rule_suggestion_2_6 -->
<g id="edge4" class="edge">
<title>synth_suggestion_2&#45;&gt;rule_suggestion_2_6</title>
<path fill="none" stroke="#555555" stroke-dasharray="1,5" d="M724.48,-901.46C733.95,-977.72 771.88,-1255.24 829.66,-1319 873.02,-1366.85 940,-1392.47 998.84,-1406.19"/>
<polygon fill="#555555" stroke="#555555" points="997.73,-1409.53 1008.25,-1408.29 999.25,-1402.7 997.73,-1409.53"/>
<text xml:space="preserve" text-anchor="middle" x="797.04" y="-1291.46" font-family="Times,serif" font-size="9.00">clause</text>
</g>
<!-- synth_suggestion_2&#45;&gt;rule_suggestion_2_7 -->
<g id="edge5" class="edge">
<title>synth_suggestion_2&#45;&gt;rule_suggestion_2_7</title>
<path fill="none" stroke="#555555" stroke-dasharray="1,5" d="M727.96,-901.27C740.84,-941.56 775.08,-1036.11 829.66,-1098 898.63,-1176.19 1006.02,-1236.67 1069.44,-1268.08"/>
<polygon fill="#555555" stroke="#555555" points="1067.73,-1271.14 1078.25,-1272.39 1070.8,-1264.85 1067.73,-1271.14"/>
<text xml:space="preserve" text-anchor="middle" x="797.04" y="-1075.11" font-family="Times,serif" font-size="9.00">clause</text>
</g>
<!-- synth_suggestion_2&#45;&gt;rule_suggestion_2_8 -->
<g id="edge6" class="edge">
<title>synth_suggestion_2&#45;&gt;rule_suggestion_2_8</title>
<path fill="none" stroke="#555555" stroke-dasharray="1,5" d="M763,-901.34C836.58,-936.18 991.19,-1009.4 1071.1,-1047.23"/>
<polygon fill="#555555" stroke="#555555" points="1069.49,-1050.35 1080.03,-1051.46 1072.49,-1044.02 1069.49,-1050.35"/>
<text xml:space="preserve" text-anchor="middle" x="797.04" y="-925.52" font-family="Times,serif" font-size="9.00">clause</text>
</g>
<!-- synth_suggestion_2&#45;&gt;rule_suggestion_2_9 -->
<g id="edge7" class="edge">
<title>synth_suggestion_2&#45;&gt;rule_suggestion_2_9</title>
<path fill="none" stroke="#555555" stroke-dasharray="1,5" d="M765.63,-882C780.31,-882 797.98,-882 817.51,-882"/>
<polygon fill="#555555" stroke="#555555" points="817.35,-885.5 827.35,-882 817.35,-878.5 817.35,-885.5"/>
<text xml:space="preserve" text-anchor="middle" x="797.04" y="-884.7" font-family="Times,serif" font-size="9.00">clause</text>
</g>
<!-- synth_suggestion_2&#45;&gt;rule_suggestion_2_10 -->
<g id="edge8" class="edge">
<title>synth_suggestion_2&#45;&gt;rule_suggestion_2_10</title>
<path fill="none" stroke="#555555" stroke-dasharray="1,5" d="M765.63,-867.3C835.34,-843.72 972.59,-797.29 1054.71,-769.52"/>
<polygon fill="#555555" stroke="#555555" points="1055.64,-772.9 1063.99,-766.38 1053.4,-766.27 1055.64,-772.9"/>
<text xml:space="preserve" text-anchor="middle" x="797.04" y="-862.07" font-family="Times,serif" font-size="9.00">clause</text>
</g>
<!-- synth_suggestion_2&#45;&gt;rule_suggestion_2_11 -->
<g id="edge9" class="edge">
<title>synth_suggestion_2&#45;&gt;rule_suggestion_2_11</title>
<path fill="none" stroke="#555555" stroke-dasharray="1,5" d="M730.69,-862.53C746.1,-829.32 781.51,-761.33 829.66,-720 892.9,-665.73 981.61,-628.83 1044.55,-607.51"/>
<polygon fill="#555555" stroke="#555555" points="1045.39,-610.92 1053.77,-604.44 1043.18,-604.28 1045.39,-610.92"/>
<text xml:space="preserve" text-anchor="middle" x="797.04" y="-773.9" font-family="Times,serif" font-size="9.00">clause</text>
</g>
<!-- cond_0_1c&#45;&gt;synth_suggestion_2 -->
<g id="edge44" class="edge">
<title>cond_0_1c&#45;&gt;synth_suggestion_2</title>
<path fill="none" stroke="#1a73e8" stroke-dasharray="5,2" d="M567.74,-759.1C578.78,-762.79 590,-767.37 599.91,-773 637.67,-794.43 673.53,-829.55 696.11,-854.12"/>
<polygon fill="#1a73e8" stroke="#1a73e8" points="693.49,-856.44 702.79,-861.52 698.69,-851.75 693.49,-856.44"/>
<text xml:space="preserve" text-anchor="middle" x="638.91" y="-817.85" font-family="Times,serif" font-size="9.00">chains&#45;to</text>
</g>
<!-- cond_0_2&#45;&gt;synth_admit_2 -->
<g id="edge45" class="edge">
<title>cond_0_2&#45;&gt;synth_admit_2</title>
<path fill="none" stroke="#1a73e8" stroke-dasharray="5,2" d="M522.38,-628.73C556.52,-571.65 661.35,-396.34 702.92,-326.83"/>
<polygon fill="#1a73e8" stroke="#1a73e8" points="705.67,-329.05 707.8,-318.67 699.67,-325.45 705.67,-329.05"/>
<text xml:space="preserve" text-anchor="middle" x="638.91" y="-464.74" font-family="Times,serif" font-size="9.00">chains&#45;to</text>
</g>
<!-- cond_3_2&#45;&gt;rule_meets_condition_2_2 -->
<g id="edge46" class="edge">
<title>cond_3_2&#45;&gt;rule_meets_condition_2_2</title>
<path fill="none" stroke="#1a73e8" stroke-dasharray="5,2" d="M2064.07,-333.24C2110.67,-329.23 2159.49,-323.42 2204.62,-315 2244.01,-307.65 2287.04,-294.8 2321.01,-283.49"/>
<polygon fill="#1a73e8" stroke="#1a73e8" points="2321.92,-286.88 2330.27,-280.36 2319.68,-280.24 2321.92,-286.88"/>
<text xml:space="preserve" text-anchor="middle" x="2243.62" y="-313.63" font-family="Times,serif" font-size="9.00">chains&#45;to</text>
</g>
<!-- cond_4_2&#45;&gt;rule_meets_condition_2_2 -->
<g id="edge47" class="edge">
<title>cond_4_2&#45;&gt;rule_meets_condition_2_2</title>
<path fill="none" stroke="#1a73e8" stroke-dasharray="5,2" d="M2097.9,-191.97C2133.88,-195.7 2170.31,-200.6 2204.62,-207 2244.01,-214.35 2287.04,-227.2 2321.01,-238.51"/>
<polygon fill="#1a73e8" stroke="#1a73e8" points="2319.68,-241.76 2330.27,-241.64 2321.92,-235.12 2319.68,-241.76"/>
<text xml:space="preserve" text-anchor="middle" x="2243.62" y="-223.87" font-family="Times,serif" font-size="9.00">chains&#45;to</text>
</g>
<!-- cond_5_2&#45;&gt;rule_meets_condition_2_2 -->
<g id="edge48" class="edge">
<title>cond_5_2&#45;&gt;rule_meets_condition_2_2</title>
<path fill="none" stroke="#1a73e8" stroke-dasharray="5,2" d="M2151.98,-23.83C2170.25,-29.41 2187.95,-36.37 2204.62,-45 2285.8,-87.01 2344.07,-183.62 2369.35,-232.12"/>
<polygon fill="#1a73e8" stroke="#1a73e8" points="2366.17,-233.59 2373.83,-240.91 2372.41,-230.41 2366.17,-233.59"/>
<text xml:space="preserve" text-anchor="middle" x="2243.62" y="-86.97" font-family="Times,serif" font-size="9.00">chains&#45;to</text>
</g>
<!-- cond_7_2&#45;&gt;rule_meets_condition_2_2 -->
<g id="edge49" class="edge">
<title>cond_7_2&#45;&gt;rule_meets_condition_2_2</title>
<path fill="none" stroke="#1a73e8" stroke-dasharray="5,2" d="M2165.01,-1251.57C2182.2,-1246.86 2195.97,-1240.78 2204.62,-1233 2349.2,-1103.01 2377.88,-441.42 2382.56,-291.31"/>
<polygon fill="#1a73e8" stroke="#1a73e8" points="2386.06,-291.5 2382.85,-281.4 2379.06,-291.3 2386.06,-291.5"/>
<text xml:space="preserve" text-anchor="middle" x="2243.62" y="-1214.92" font-family="Times,serif" font-size="9.00">chains&#45;to</text>
</g>
</g>
</svg>
